<svg xmlns="http://www.w3.org/2000/svg" height="48" viewBox="0 -960 960 960" width="48"><path d="M269.961-85Q193-85 138-140.039q-55-55.039-55-132T138.039-404q55.039-55 132-55T402-403.961q55 55.039 55 132T401.961-140q-55.039 55-132 55ZM840-95 573-361q-15 14-35.5 25.5T498-317q-2-31-9-54t-17-41q54-19 88.5-64T595-584q0-75.417-51.292-127.208Q492.417-763 417-763t-127.708 51.792Q237-659.417 237-584q0 17 3 36.5t9 29.5q-21.164 2.429-45.582 9.214Q179-502 161-492q-8-19.756-11.5-45.011Q146-562.267 146-584q0-112.712 79.203-191.356Q304.406-854 417.203-854 529-854 607.5-774.856T686-584q0 43.208-13.5 84.604T636-429l270 268-66 66Zm-639-68 69-69 67 68 40-40-68-66 70-71-39-40-68.5 69-70.5-70-39 40 70 69-70 69 39 41Z"/></svg>